<mxfile host="app.diagrams.net" modified="2024-05-17T08:31:43.436Z" agent="Mozilla/5.0 (Macintosh; Intel Mac OS X 10_15_7) AppleWebKit/537.36 (KHTML, like Gecko) Chrome/124.0.0.0 Safari/537.36" version="24.4.3" etag="g9fCduy9MJqX4upI56YH" type="github">
  <diagram name="第 1 页" id="41b0cS2JBLppxSqfYKro">
    <mxGraphModel>
      <root>
        <mxCell id="0" />
        <mxCell id="1" parent="0" />
      </root>
    </mxGraphModel>
  </diagram>
</mxfile>
